# xmcd CD database file generated by OrangeCD 5.2
#
# Track frame offsets:
#	150
#	13715
#	28387
#	41127
#	55607
#	68457
#	83405
#	96320
#	111555
#	126217
#	141670
#	155405
#	169900
#	184637
#	197907
#	211735
#
# Disc length: 3031 seconds
#
# Revision: 1
# Processed by: cddbd v1.5.1PL0 Copyright (c) Steve Scherf et al.
# Submitted via: OrangeCD 5.2
#
DISCID=e30bd510
DTITLE=Jelly Roll Morton - Masters Of Jazz - Jelly Roll Morton
DYEAR=1900
DGENRE=Jazz
TTITLE0=Oh, Didn't He Ramble
TTITLE1=I Thought I Heard Buddy Bolden Say
TTITLE2=High Society
TTITLE3=Within' Boy Blues
TTITLE4=King Porter Stomp
TTITLE5=Shoe Shiner's Drag
TTITLE6=Kansas City Stomp
TTITLE7=The Chant
TTITLE8=Dead Man Blues
TTITLE9=The Pearls
TTITLE10=Original Jelly-Roll Blues
TTITLE11=Black Bottom Stomp
TTITLE12=Beale Street Blues
TTITLE13=Grandpa's Spells
TTITLE14=Wild Man Blue
TTITLE15=Doctor Jazz
EXTD=
EXTT0=
EXTT1=
EXTT2=
EXTT3=
EXTT4=
EXTT5=
EXTT6=
EXTT7=
EXTT8=
EXTT9=
EXTT10=
EXTT11=
EXTT12=
EXTT13=
EXTT14=
EXTT15=
PLAYORDER=
